<svg xmlns="http://www.w3.org/2000/svg" height="50" width="50" viewBox="-1000 -1000 2000 2000"><g transform="scale(-1,1) rotate(5)"><path d="M132 613 c-35 -8 -67 -17 -73 -20 -6 -4 17 -24 50 -46 78 -53 159 -144 204 -228 43 -82 76 -212 76 -301 0 -89 -33 -219 -77 -304 -69 -130 -223 -261 -363 -305 -116 -36 -271 -32 -398 10 -81 27 -198 105 -258 172 l-46 52 27 -45 c54 -88 86 -130 138 -181 162 -160 415 -259 632 -246 456 28 805 388 809 837 1 96 -3 127 -22 185 -37 110 -80 181  -155 256 -144 143 -351 206 -544 164z" stroke="#38e8b6" fill="#38e8b6"></path></g><g transform="scale(-1,1) rotate(185)"><path d="M132 613 c-35 -8 -67 -17 -73 -20 -6 -4 17 -24 50 -46 78 -53 159 -144 204 -228 43 -82 76 -212 76 -301 0 -89 -33 -219 -77 -304 -69 -130 -223 -261 -363 -305 -116 -36 -271 -32 -398 10 -81 27 -198 105 -258 172 l-46 52 27 -45 c54 -88 86 -130 138 -181 162 -160 415 -259 632 -246 456 28 805 388 809 837 1 96 -3 127 -22 185 -37 110 -80 181  -155 256 -144 143 -351 206 -544 164z" stroke="hsl(162,39.64%,34.90%)" fill="hsl(162,39.64%,34.90%)"></path></g></svg>